# This file uses centimeters as units for non-parametric coordinates.

mtllib Wall_16.mtl
g default
v -28.386025 0.016184 0.344094
v 28.374750 0.016184 0.156148
v -28.386025 12.016186 0.344094
v 28.374750 12.016186 0.156148
v -28.374750 12.016186 -0.156148
v 28.386025 12.016186 -0.344094
v -28.374750 0.016184 -0.156148
v 28.386025 0.016184 -0.344094
vt 0.000008 0.008659
vt 0.008663 0.216408
vt 0.008671 0.008660
vt 0.008886 0.225067
vt 0.982675 0.225107
vt 0.991337 0.008699
vt 0.008895 0.000000
vt 1.000000 0.008700
vt 0.991562 0.000040
vt 0.000000 0.432815
vt 0.991329 0.216447
vt 0.000000 0.216407
vt 0.982667 0.432855
vt 0.991553 0.225107
vt 0.999992 0.216448
vt 0.000008 0.225067
vn 0.003311 0.000000 0.999994
vn 0.003311 0.000000 0.999994
vn 0.003311 0.000000 0.999994
vn 0.003311 0.000000 0.999994
vn 0.000000 1.000000 0.000000
vn 0.000000 1.000000 0.000000
vn 0.000000 1.000000 0.000000
vn 0.000000 1.000000 0.000000
vn -0.003311 0.000000 -0.999994
vn -0.003311 0.000000 -0.999994
vn -0.003311 0.000000 -0.999994
vn -0.003311 0.000000 -0.999994
vn 0.000000 -1.000000 0.000001
vn 0.000000 -1.000000 0.000001
vn 0.000000 -1.000000 0.000001
vn 0.000000 -1.000000 0.000001
vn 0.999746 0.000000 0.022534
vn 0.999746 0.000000 0.022534
vn 0.999746 0.000000 0.022534
vn 0.999746 0.000000 0.022534
vn -0.999746 0.000000 -0.022534
vn -0.999746 0.000000 -0.022534
vn -0.999746 0.000000 -0.022534
vn -0.999746 0.000000 -0.022534
s off
g Wall_16 All_Wall
usemtl initialShadingGroup
f 3/2/1 1/3/2 2/6/3 4/11/4
f 5/4/5 3/2/6 4/11/7 6/14/8
f 7/5/9 5/13/10 6/10/11 8/16/12
f 2/6/13 1/3/14 7/7/15 8/9/16
f 2/6/17 8/8/18 6/15/19 4/11/20
f 7/1/21 1/3/22 3/2/23 5/12/24
