# This file uses centimeters as units for non-parametric coordinates.

mtllib Wall_8.mtl
g default
v -12.000000 0.016186 0.250000
v 12.000000 0.016186 0.250000
v -12.000000 12.016186 0.250000
v 12.000000 12.016186 0.250000
v -12.000000 12.016186 -0.250000
v 12.000000 12.016186 -0.250000
v -12.000000 0.016186 -0.250000
v 12.000000 0.016186 -0.250000
vt 0.968378 0.029343
vt 0.968523 0.005795
vt 0.000000 0.994141
vt 0.965481 0.500309
vt 0.955270 0.523830
vt 0.026446 0.023548
vt 0.023548 0.494515
vt 0.023403 0.518063
vt 0.000000 0.494370
vt 0.002898 0.023404
vt 0.026591 0.000000
vt 0.991926 0.029488
vt 0.952341 1.000000
vt 0.965336 0.523858
vt 0.989029 0.500454
vt 0.002930 0.517970
vn 0.000000 0.000000 1.000000
vn 0.000000 0.000000 1.000000
vn 0.000000 0.000000 1.000000
vn 0.000000 0.000000 1.000000
vn 0.000000 1.000000 0.000000
vn 0.000000 1.000000 0.000000
vn 0.000000 1.000000 0.000000
vn 0.000000 1.000000 0.000000
vn 0.000000 0.000000 -1.000000
vn 0.000000 0.000000 -1.000000
vn 0.000000 0.000000 -1.000000
vn 0.000000 0.000000 -1.000000
vn 0.000000 -1.000000 0.000000
vn 0.000000 -1.000000 0.000000
vn 0.000000 -1.000000 0.000000
vn 0.000000 -1.000000 0.000000
vn 1.000000 0.000000 0.000000
vn 1.000000 0.000000 0.000000
vn 1.000000 0.000000 0.000000
vn 1.000000 0.000000 0.000000
vn -1.000000 0.000000 0.000000
vn -1.000000 0.000000 0.000000
vn -1.000000 0.000000 0.000000
vn -1.000000 0.000000 0.000000
s off
g Wall_8 All_Wall
usemtl initialShadingGroup
f 3/7/1 1/6/2 2/1/3 4/4/4
f 5/8/5 3/7/6 4/4/7 6/14/8
f 7/5/9 5/13/10 6/3/11 8/16/12
f 2/1/13 1/6/14 7/11/15 8/2/16
f 2/1/17 8/12/18 6/15/19 4/4/20
f 7/10/21 1/6/22 3/7/23 5/9/24
