# This file uses centimeters as units for non-parametric coordinates.

mtllib Stairs_Left.mtl
g default
v -11.999991 0.016184 6.000000
v 12.000009 0.016184 6.000000
v 12.000009 6.047165 6.000000
v -11.999991 12.022454 -6.000000
v 12.000009 6.047165 -6.000000
v -11.999991 0.016184 -6.000000
v 12.000009 0.016184 -6.000000
v -11.999991 12.022454 0.000000
v -11.999991 0.016184 0.000000
v 12.000009 0.016184 0.000000
v 12.000009 6.047165 0.000000
v 4.800004 0.016184 6.000000
v 4.800004 6.047165 6.000000
v 4.800004 6.047165 0.000000
v 4.800004 6.047165 -6.000000
v 4.800004 0.016184 -6.000000
v 4.800004 0.016184 0.000000
v -11.999991 0.268812 6.000000
v -11.999991 0.268812 0.000000
v -11.999991 0.268812 -6.000000
v 4.800004 0.268812 -6.000000
v 12.000009 0.268812 -6.000000
v 12.000009 0.268812 0.000000
v 12.000009 0.268812 6.000000
v 4.800004 0.268812 6.000000
v -3.599997 3.144710 0.000000
v -3.599997 3.144710 6.000000
v 12.000009 6.047165 5.400000
v 4.800004 6.047165 5.400000
v -3.599997 3.144710 5.400000
v -11.999991 0.268812 5.400000
v -11.999991 0.016184 5.400000
v 4.800004 0.016184 5.400000
v 12.000009 0.016184 5.400000
v 12.000009 0.268812 5.400000
v 11.280001 6.047165 0.000000
v 11.280001 6.047165 5.400000
v 11.280001 6.047165 6.000000
v 11.280001 0.268812 6.000000
v 11.280001 0.016184 6.000000
v 11.280001 0.016184 5.400000
v 11.280001 0.016184 0.000000
v 11.280001 0.016184 -6.000000
v 11.280001 0.268812 -6.000000
v 11.280001 6.047165 -6.000000
v -11.999991 0.016184 -5.400000
v -11.999991 0.268812 -5.400000
v -11.999991 12.022454 -5.400000
v 4.800004 6.047165 -5.400000
v 11.280001 6.047165 -5.400000
v 12.000009 6.047165 -5.400000
v 12.000009 0.268812 -5.400000
v 12.000009 0.016184 -5.400000
v 11.280001 0.016184 -5.400000
v 4.800004 0.016184 -5.400000
v -11.999991 12.022454 -0.540000
v -11.999991 0.268812 -0.540000
v -11.999991 0.016184 -0.540000
v 4.800004 0.016184 -0.540000
v 11.280001 0.016184 -0.540000
v 12.000009 0.016184 -0.540000
v 12.000009 0.268812 -0.540000
v 12.000009 6.047165 -0.540000
v 11.280001 6.047165 -0.540000
v 4.800004 6.047165 -0.540000
v 5.448000 0.016184 6.000000
v 5.448000 0.268812 6.000000
v 5.448000 6.047165 6.000000
v 5.448000 6.047165 5.400000
v 5.448000 6.047165 0.000000
v 5.448000 6.047165 -0.540000
v 5.448000 6.047165 -5.400000
v 5.448000 6.047165 -6.000000
v 5.448000 0.268812 -6.000000
v 5.448000 0.016184 -6.000000
v 5.448000 0.016184 -5.400000
v 5.448000 0.016184 -0.540000
v 5.448000 0.016184 0.000000
v 5.448000 0.016184 5.400000
v -11.999991 14.074719 -5.400000
v -11.999991 14.074719 -6.000000
v 4.800004 8.069025 -5.400000
v 4.800004 8.069025 -6.000000
v 12.000009 8.069031 5.400000
v 11.280001 8.069031 5.400000
v 11.280001 8.069031 6.000000
v 12.000009 8.069031 6.000000
v 11.280001 8.069031 -6.000000
v 11.280001 8.069031 -5.400000
v 12.000009 8.069031 -5.400000
v 12.000009 8.069031 -6.000000
v 4.800004 8.069025 6.000000
v 4.800004 8.069025 5.400000
v -3.599997 5.029755 5.400000
v -3.599997 5.029755 6.000000
v -11.999991 2.001121 5.400000
v -11.999991 2.001121 6.000000
v 12.000009 8.069031 0.000000
v 11.280001 8.069031 0.000000
v 5.448000 8.069025 6.000000
v 5.448000 8.069025 5.400000
v 5.448000 8.069025 -5.400000
v 5.448000 8.069025 -6.000000
v 12.000009 8.069031 -0.540000
v 11.280001 8.069031 -0.540000
v -11.999991 14.074719 -0.540000
v -11.999991 14.074719 0.000000
v 4.800004 8.069025 -0.540000
v 4.800004 8.069025 0.000000
v 5.448000 8.069025 0.000000
v 5.448000 8.069025 -0.540000
vt 0.591960 0.135694
vt 0.242673 0.117967
vt 0.977819 0.701205
vt 0.242673 0.135694
vt 0.977819 0.706427
vt 0.815738 0.389381
vt 0.630577 0.706427
vt 0.020811 0.151680
vt 0.033327 0.151680
vt 0.591960 0.117967
vt 0.741654 0.130441
vt 0.754129 0.130440
vt 0.630577 0.701205
vt 0.851904 0.452294
vt 0.275098 0.483735
vt 0.033327 0.156950
vt 0.591960 0.130442
vt 0.242673 0.130442
vt 0.754129 0.135693
vt 0.108492 0.470628
vt 0.741654 0.135694
vt 0.289960 0.484613
vt 0.496641 0.701205
vt 0.630577 0.688804
vt 0.496641 0.706427
vt 0.977819 0.688804
vt 0.812219 0.377484
vt 0.020811 0.156950
vt 0.481759 0.706427
vt 0.481759 0.701205
vt 0.977819 0.949365
vt 0.978674 0.135693
vt 0.978674 0.130440
vt 0.236124 0.669665
vt 0.496435 0.277490
vt 0.236066 0.992158
vt 0.236091 0.856171
vt 0.145975 0.402139
vt 0.726685 0.135694
vt 0.726685 0.130442
vt 0.426181 0.450776
vt 0.122768 0.856150
vt 0.603096 0.401095
vt 0.236159 0.478038
vt 0.820747 0.387899
vt 0.481759 0.688804
vt 0.496641 0.688804
vt 0.978674 0.255832
vt 0.481759 0.825861
vt 0.500327 0.330554
vt 0.312375 0.545401
vt 0.741654 0.255831
vt 0.630577 0.825861
vt 0.496641 0.825861
vt 0.033327 0.402139
vt 0.267904 0.607278
vt 0.020811 0.402139
vt 0.666718 0.468481
vt 0.663111 0.509485
vt 0.754129 0.255832
vt 0.726685 0.117967
vt 0.866401 0.130440
vt 0.741654 0.117967
vt 0.630577 0.577190
vt 0.134710 0.156950
vt 0.134710 0.151680
vt 0.242673 0.005696
vt 0.726685 0.005696
vt 0.481759 0.577190
vt 0.605432 0.117967
vt 0.866401 0.135693
vt 0.866402 0.255832
vt 0.104600 0.459741
vt 0.877629 0.135693
vt 0.605432 0.130442
vt 0.909322 0.452010
vt 0.600809 0.440006
vt 0.552083 0.312042
vt 0.617184 0.706427
vt 0.605432 0.005696
vt 0.617184 0.701205
vt 0.617184 0.688804
vt 0.496641 0.588352
vt 0.481759 0.588352
vt 0.306563 0.586919
vt 0.678999 0.468650
vt 0.309001 0.598929
vt 0.677227 0.509636
vt 0.754129 0.297869
vt 0.726685 0.255831
vt 0.894244 0.452085
vt 0.617184 0.825861
vt 0.289229 0.496997
vt 0.423717 0.492509
vt 0.274367 0.496120
vt 0.425114 0.504649
vt 0.741654 0.297868
vt 0.145975 0.151680
vt 0.145975 0.156950
vt 0.893686 0.339003
vt 0.145975 0.444951
vt 0.591959 0.255831
vt 0.977819 0.991783
vt 0.664883 0.521654
vt 0.796875 0.523285
vt 0.122802 0.669644
vt 0.122835 0.483319
vt 0.236088 0.869770
vt 0.851960 0.463602
vt 0.122765 0.869749
vt 0.111433 0.869747
vt 0.009443 0.869729
vt 0.009445 0.856130
vt 0.111436 0.856148
vt 0.009513 0.481935
vt 0.111503 0.481953
vt 0.852463 0.565376
vt 0.796948 0.511050
vt 0.908763 0.338929
vt 0.909378 0.463318
vt 0.417316 0.195486
vt 0.134710 0.402139
vt 0.265464 0.595262
vt 0.149867 0.455837
vt 0.496435 0.319667
vt 0.527065 0.363173
vt 0.177007 0.462928
vt 0.321205 0.216943
vt 0.548188 0.301156
vt 0.511324 0.326623
vt 0.507431 0.315737
vt 0.543515 0.288093
vt 0.502758 0.302675
vt 0.556756 0.325105
vt 0.515997 0.339686
vt 0.605432 0.135694
vt 0.605432 0.255831
vt 0.122836 0.478018
vt 0.877629 0.255832
vt 0.630577 0.588352
vt 0.877629 0.130440
vt 0.617184 0.588352
vt 0.726685 0.297867
vt 0.591959 0.297867
vt 0.977819 0.588352
vt 0.779963 0.351885
vt 0.417316 0.234678
vt 0.242673 0.171710
vt 0.605432 0.297867
vt 0.617184 0.577190
vt 0.496641 0.577190
vt 0.741654 0.005696
vt 0.591960 0.005696
vt 0.977819 0.577191
vt 0.630577 0.867651
vt 0.811661 0.511128
vt 0.481759 0.867651
vt 0.496641 0.867651
vt 0.617184 0.867651
vt 0.894300 0.463393
vt 0.978674 0.297869
vt 0.811588 0.523382
vt 0.866401 0.297869
vt 0.877629 0.297869
vt 0.797342 0.469928
vt 0.991149 0.255832
vt 0.991149 0.297869
vt 0.991149 0.135693
vt 0.991149 0.130440
vt 0.777870 0.387643
vt 0.604331 0.451902
vt 0.412805 0.449986
vt 0.410341 0.491720
vt 0.781389 0.399540
vt 0.292424 0.442878
vt 0.409610 0.504105
vt 0.894803 0.565166
vt 0.909881 0.565092
vt 0.111411 0.992136
vt 0.122744 0.992138
vt 0.009421 0.992117
vt 0.851345 0.339212
vt 0.677435 0.521819
vt 0.236158 0.483340
vt 0.817228 0.376002
vn 0.000000 0.000000 1.000000
vn 0.000000 0.000000 1.000000
vn 0.000000 0.000000 1.000000
vn 0.000000 0.000000 1.000000
vn 0.000000 0.000000 -1.000000
vn 0.000000 0.000000 -1.000000
vn 0.000000 0.000000 -1.000000
vn 0.000000 0.000000 -1.000000
vn 0.000000 -1.000000 0.000000
vn 0.000000 -1.000000 0.000000
vn 0.000000 -1.000000 0.000000
vn 0.000000 -1.000000 0.000000
vn 1.000000 0.000000 0.000000
vn 1.000000 0.000000 0.000000
vn 1.000000 0.000000 0.000000
vn 1.000000 0.000000 0.000000
vn -1.000000 0.000000 0.000000
vn -0.370349 0.928893 0.000000
vn -1.000000 0.000000 0.000000
vn -1.000000 0.000000 0.000000
vn -1.000000 0.000000 0.000000
vn -1.000000 -0.000003 0.000000
vn -1.000000 -0.000000 0.000000
vn -1.000000 0.000000 0.000000
vn 0.000000 -1.000000 0.000000
vn 0.000000 -1.000000 0.000000
vn 0.000000 -1.000000 0.000000
vn 0.000000 -1.000000 0.000000
vn 1.000000 0.000000 0.000000
vn 1.000000 -0.000000 0.000000
vn 1.000000 0.000000 0.000000
vn 1.000000 0.000000 0.000000
vn 0.336619 0.941641 0.000000
vn 0.336619 0.941641 0.000000
vn 0.325465 0.945554 0.000000
vn 0.325465 0.945554 0.000000
vn 0.000000 0.000000 1.000000
vn 0.000000 0.000000 1.000000
vn 0.000000 0.000000 1.000000
vn 0.000000 0.000000 1.000000
vn 0.000000 1.000000 0.000000
vn -0.000000 1.000000 0.000000
vn -0.000001 1.000000 0.000000
vn 0.000000 1.000000 0.000000
vn -0.000001 1.000000 0.000000
vn -0.000000 1.000000 0.000000
vn 0.000000 1.000000 0.000000
vn 0.000000 1.000000 0.000000
vn 0.000000 0.000000 -1.000000
vn 0.000000 0.000000 -1.000000
vn 0.000000 0.000000 -1.000000
vn 0.000000 0.000000 -1.000000
vn 0.000000 -1.000000 0.000000
vn 0.000000 -1.000000 0.000000
vn 0.000000 -1.000000 0.000000
vn 0.000000 -1.000000 0.000000
vn 0.000000 -1.000000 0.000000
vn 0.000000 -1.000000 0.000000
vn 0.000000 -1.000000 0.000000
vn 0.000000 -1.000000 0.000000
vn -0.358964 0.805928 0.470770
vn -0.060356 0.000000 -0.998177
vn 0.000000 0.000000 -1.000000
vn 0.000000 0.000000 -1.000000
vn 0.000000 0.000000 -1.000000
vn 1.000000 -0.000000 0.000000
vn 1.000000 0.000000 0.000000
vn 1.000000 0.000000 0.000000
vn 1.000000 0.000000 0.000000
vn 0.000000 0.000000 1.000000
vn 0.000000 0.000000 1.000000
vn 0.000000 0.000000 1.000000
vn 0.000000 0.000000 1.000000
vn -0.318421 0.947949 0.000000
vn -0.318421 0.947949 0.000000
vn -0.339706 0.940532 0.000000
vn -0.339706 0.940532 0.000000
vn 0.000000 0.000000 1.000000
vn -0.069102 0.000000 0.997610
vn 0.000000 0.000000 1.000000
vn 0.000000 0.000000 1.000000
vn -0.339179 0.940722 0.000000
vn -0.339179 0.940722 0.000000
vn 0.000000 1.000000 0.000000
vn 0.000000 1.000000 0.000000
vn -0.325249 0.945628 0.000000
vn -0.305453 0.952207 0.000000
vn -0.305453 0.952207 0.000000
vn -0.325249 0.945628 0.000000
vn -0.458114 0.888893 0.000000
vn -1.000000 0.000000 0.000000
vn 0.000000 -1.000000 0.000000
vn 0.000000 -1.000000 0.000000
vn 0.000000 -1.000000 0.000000
vn 0.000000 -1.000000 0.000000
vn 1.000000 0.000000 0.000000
vn 1.000000 0.000000 0.000000
vn 1.000000 0.000000 0.000000
vn 0.000000 1.000000 0.000000
vn 0.000000 1.000000 0.000000
vn -0.000001 1.000000 0.000000
vn -0.000001 1.000000 0.000000
vn 0.000000 0.000000 1.000000
vn 0.000000 0.000000 1.000000
vn 0.000000 0.000000 1.000000
vn 0.000000 -1.000000 0.000000
vn 0.000000 -1.000000 0.000000
vn 0.000000 -1.000000 0.000000
vn 0.000000 -1.000000 0.000000
vn 0.000000 -1.000000 0.000000
vn 0.000000 0.000000 -1.000000
vn 0.000000 0.000000 -1.000000
vn 0.000000 0.000000 -1.000000
vn -0.000001 1.000000 0.000000
vn -0.000001 1.000000 0.000000
vn -1.000000 -0.000000 0.000000
vn -1.000000 -0.000003 0.000000
vn -0.351809 0.808277 -0.472142
vn 0.325465 0.945554 0.000000
vn 0.336620 0.941641 0.000000
vn 0.336620 0.941641 0.000000
vn 0.325465 0.945554 0.000000
vn 0.000000 1.000000 0.000000
vn 0.000000 1.000000 0.000000
vn 0.000000 1.000000 0.000000
vn 0.000000 1.000000 0.000000
vn 1.000000 -0.000000 0.000000
vn 1.000000 -0.000000 0.000000
vn 1.000000 0.000000 0.000000
vn 0.000000 -1.000000 0.000000
vn 0.000000 -1.000000 0.000000
vn 0.000000 -1.000000 0.000000
vn 0.000000 -1.000000 0.000000
vn 0.000000 -1.000000 0.000000
vn 0.000000 1.000000 0.000000
vn 0.000000 1.000000 0.000000
vn 0.323991 0.946060 0.000000
vn 0.323991 0.946060 0.000000
vn 0.000000 1.000000 0.000000
vn 0.000000 1.000000 0.000000
vn 0.000000 1.000000 0.000000
vn 0.000000 1.000000 0.000000
vn 0.000000 0.000000 1.000000
vn 0.000000 0.000000 1.000000
vn -0.059382 0.000000 0.998235
vn -0.059382 0.000000 -0.998235
vn 0.000000 0.000000 -1.000000
vn 0.000000 0.000000 1.000000
vn 0.000000 0.000000 1.000000
vn 1.000000 0.000000 0.000000
vn 1.000000 0.000000 0.000000
vn 1.000000 0.000000 0.000000
vn 1.000000 0.000000 0.000000
vn 0.000000 0.000000 -1.000000
vn 0.000000 0.000000 -1.000000
vn 0.000000 0.000000 -1.000000
vn 0.000000 0.000000 -1.000000
vn 0.000000 0.000000 -1.000000
vn 0.000000 0.000000 -1.000000
vn 0.000000 0.000000 1.000000
vn 0.000000 0.000000 1.000000
vn 0.000000 0.000000 -1.000000
vn 0.000000 0.000000 -1.000000
vn -1.000000 0.000000 0.000000
vn -1.000000 0.000000 0.000000
vn 0.000000 0.000000 1.000000
vn -1.000000 0.000000 0.000000
vn -1.000000 0.000000 0.000000
vn -1.000000 0.000000 0.000000
vn -1.000000 0.000000 0.000000
vn 1.000000 0.000000 0.000000
vn 0.000000 0.000000 -1.000000
vn 0.000000 0.000000 -1.000000
vn 0.000000 0.000000 1.000000
vn 0.000000 0.000000 1.000000
vn 0.000000 0.000000 1.000000
vn 0.000000 0.000000 -1.000000
vn -1.000000 0.000000 0.000000
vn -1.000000 0.000000 0.000000
vn 1.000000 0.000000 0.000000
vn -1.000000 0.000000 0.000000
vn -1.000000 0.000000 0.000000
vn 0.000000 0.000000 -1.000000
vn 0.000000 0.000000 -1.000000
vn 0.000000 0.000000 1.000000
vn 0.000000 0.000000 1.000000
vn -0.053462 0.000000 0.998570
vn -0.053462 0.000000 -0.998570
vn -0.000000 0.000000 -1.000000
vn -0.000000 0.000000 -1.000000
vn 0.000000 0.000000 1.000000
vn 1.000000 0.000000 0.000000
vn 1.000000 0.000000 0.000000
vn 1.000000 0.000000 0.000000
vn 1.000000 0.000000 0.000000
vn 0.000000 0.000000 -1.000000
vn 0.000000 0.000000 -1.000000
vn 0.000000 0.000000 1.000000
vn 0.000000 0.000000 1.000000
s 1
g Stairs_left Stairs
usemtl initialShadingGroup
f 25/1/1 18/4/2 1/18/3 12/17/4
s 2
f 6/3/5 20/5/6 21/7/7 16/13/8
s 3
f 32/2/9 33/10/10 12/17/11 1/18/12
s 4
f 2/11/13 34/12/14 35/19/15 24/21/16
s 2
f 18/6/17 31/27/18 32/185/19 1/45/20
f 6/8/21 46/9/22 47/16/23 20/28/24
s 3
f 16/13/25 55/24/26 46/26/27 6/3/28
s 4
f 22/168/29 52/32/30 53/33/31 7/169/32
s 9
f 81/87/33 80/85/34 82/59/35 83/104/36
s 1
f 24/21/37 39/39/38 40/40/39 2/11/40
s 9
f 84/15/41 85/22/42 86/93/43 87/95/44
f 88/105/45 89/118/46 90/156/47 91/162/48
s 2
f 43/23/49 44/25/50 22/29/51 7/30/52
s 3
f 53/46/53 54/47/54 43/23/55 7/30/56
f 2/11/57 40/40/58 41/61/59 34/63/60
s 2
f 20/28/24 47/16/23 48/55/61 4/57/62
f 21/7/7 20/5/6 4/31/62 15/53/63
f 22/29/51 44/25/50 45/54/64 5/49/65
s 4
f 51/48/66 52/32/30 22/168/29 5/166/67
f 24/21/16 35/19/15 28/60/68 3/52/69
s 1
f 38/90/70 39/39/38 24/21/37 3/52/71
f 13/102/72 27/121/73 18/4/2 25/1/1
s 9
f 92/96/74 93/94/75 94/77/76 95/171/77
s 2
f 14/35/78 8/38/79 19/99/80 26/128/81
s 9
f 95/171/77 94/77/76 96/170/82 97/174/83
f 98/76/84 99/91/85 85/100/42 84/119/41
s 2
f 30/34/86 29/37/87 14/42/88 26/106/89
f 31/184/18 30/34/86 26/106/89 19/107/90
f 32/44/19 31/184/18 19/107/90 9/138/91
s 3
f 17/153/92 33/10/10 32/2/9 9/67/93
f 34/63/60 41/61/59 42/68/94 10/152/95
s 4
f 35/19/15 34/12/14 10/62/96 23/71/97
f 28/60/68 35/19/15 23/71/97 11/72/98
s 2
f 69/108/99 70/110/100 14/42/88 29/37/87
s 9
f 100/176/101 101/173/102 93/94/75 92/96/74
s 1
f 13/102/72 25/1/1 67/136/103 68/137/104
f 66/75/105 67/136/103 25/1/1 12/17/4
s 3
f 79/70/106 66/75/107 12/17/11 33/10/10
f 78/80/108 79/70/106 33/10/10 17/153/92
f 75/81/109 76/82/110 55/24/26 16/13/25
s 2
f 16/13/8 21/7/7 74/79/111 75/81/112
f 73/92/113 74/79/111 21/7/7 15/53/63
s 9
f 83/104/36 82/59/35 102/88/114 103/183/115
s 2
f 57/65/116 58/66/117 9/98/91 19/99/90
f 56/122/118 57/65/116 19/99/90 8/38/79
s 19
f 108/50/119 106/124/120 107/101/121 109/125/122
f 110/131/123 111/130/124 108/50/119 109/125/122
s 9
f 104/120/125 105/160/126 99/91/85 98/76/84
s 4
f 11/72/98 23/71/97 62/74/127 63/139/128
f 61/141/129 62/74/127 23/71/97 10/62/96
s 3
f 10/69/95 42/151/94 60/83/130 61/84/131
f 59/140/132 77/142/133 78/150/108 17/64/92
f 58/145/134 59/140/132 17/64/92 9/154/93
s 2
f 48/55/61 47/16/23 57/65/116 56/122/118
f 47/16/23 46/9/22 58/66/117 57/65/116
s 3
f 46/26/27 55/24/26 59/140/132 58/145/134
f 55/24/26 76/82/110 77/142/133 59/140/132
f 61/84/131 60/83/130 54/47/54 53/46/53
s 4
f 53/33/31 52/32/30 62/74/127 61/141/129
f 63/139/128 62/74/127 52/32/30 51/48/66
s 9
f 90/178/47 89/177/46 105/160/126 104/120/125
s 2
f 71/111/135 72/112/136 49/113/137 65/114/138
f 49/113/137 48/115/61 56/116/118 65/114/138
s 1
f 40/40/39 39/39/38 67/136/103 66/75/105
f 68/137/104 67/136/103 39/39/38 38/90/70
s 9
f 86/93/43 85/22/42 101/173/102 100/176/101
s 2
f 37/36/139 36/180/140 70/110/100 69/108/99
f 64/179/141 71/111/135 70/110/100 36/180/140
f 50/181/142 72/112/136 71/111/135 64/179/141
s 9
f 103/183/115 102/88/114 89/118/46 88/105/45
s 2
f 45/54/64 44/25/50 74/79/111 73/92/113
f 75/81/112 74/79/111 44/25/50 43/23/49
s 3
f 43/23/55 54/47/54 76/82/110 75/81/109
f 77/142/133 76/82/110 54/47/54 60/83/130
f 78/150/108 77/142/133 60/83/130 42/151/94
f 42/68/94 41/61/59 79/70/106 78/80/108
f 41/61/59 40/40/58 66/75/107 79/70/106
s 2
f 48/51/61 49/58/143 82/59/144 80/85/145
f 15/53/63 4/31/62 81/103/146 83/155/147
s 1
f 38/90/70 3/52/71 87/97/148 86/143/149
s 4
f 3/52/69 28/60/68 84/89/150 87/97/151
f 51/48/66 5/166/67 91/167/152 90/161/153
s 2
f 5/49/65 45/54/64 88/158/154 91/157/155
s 22
f 29/41/156 30/43/157 94/77/158 93/94/159
s 1
f 27/121/73 13/102/72 92/144/160 95/147/161
s 2
f 4/56/62 48/123/61 80/85/145 81/87/146
s 22
f 30/43/157 31/146/162 96/170/163 94/77/158
s 2
f 31/27/18 18/6/17 97/174/164 96/170/165
s 1
f 18/4/2 27/121/73 95/147/161 97/148/166
s 23
f 36/14/167 37/182/168 85/100/169 99/91/170
s 4
f 28/60/68 11/72/98 98/163/171 84/89/150
s 22
f 69/172/172 29/41/156 93/94/159 101/173/173
s 1
f 13/102/72 68/137/104 100/149/174 92/144/160
s 2
f 49/58/143 72/86/175 102/88/176 82/59/144
f 73/92/113 15/53/63 83/155/147 103/159/177
s 23
f 64/109/178 36/14/167 99/91/170 105/160/179
s 4
f 11/72/98 63/139/128 104/164/180 98/163/171
s 23
f 50/117/181 64/109/178 105/160/179 89/177/182
s 4
f 63/139/128 51/48/66 90/161/153 104/164/180
s 22
f 37/175/183 69/172/172 101/173/173 85/22/184
s 1
f 68/137/104 38/90/70 86/143/149 100/149/174
s 2
f 72/86/175 50/165/185 89/118/186 102/88/176
f 45/54/64 73/92/113 103/159/177 88/158/154
f 56/20/118 8/73/79 107/101/187 106/124/188
f 65/126/189 56/127/118 106/124/188 108/50/190
f 8/38/79 14/35/78 109/125/191 107/101/187
s off
f 70/129/192 71/78/193 111/130/194 110/131/195
s 2
f 71/78/196 65/134/189 108/135/190 111/130/197
f 14/132/78 70/129/198 110/131/199 109/133/191
