# This file uses centimeters as units for non-parametric coordinates.

mtllib Slide.mtl
g default
v -6.000000 0.015999 2.500000
v 6.000000 0.015999 2.500000
v -6.000000 5.015999 2.500000
v 6.000000 5.015999 2.500000
v -6.000000 0.015999 -2.500000
v 6.000000 0.015999 -2.500000
vt 0.013536 0.415672
vt 0.234656 0.636791
vt 0.234656 0.949502
vt 0.765344 0.415672
vt 0.234656 0.415672
vt 0.765344 0.636791
vt 0.234656 0.194552
vt 0.765344 0.949502
vt 0.986464 0.415672
vt 0.765344 0.194552
vn 0.000000 0.000000 1.000000
vn 0.000000 0.000000 1.000000
vn 0.000000 0.000000 1.000000
vn 0.000000 0.000000 1.000000
vn 0.000000 0.707107 -0.707107
vn 0.000000 0.707107 -0.707107
vn 0.000000 0.707107 -0.707107
vn 0.000000 0.707107 -0.707107
vn 0.000000 -1.000000 0.000000
vn 0.000000 -1.000000 0.000000
vn 0.000000 -1.000000 0.000000
vn 0.000000 -1.000000 0.000000
vn 1.000000 0.000000 0.000000
vn 1.000000 0.000000 0.000000
vn 1.000000 0.000000 0.000000
vn -1.000000 0.000000 0.000000
vn -1.000000 0.000000 0.000000
vn -1.000000 0.000000 0.000000
s off
g Slide Stairs
usemtl initialShadingGroup
f 3/2/1 1/5/2 2/4/3 4/6/4
f 5/3/5 3/2/6 4/6/7 6/8/8
f 2/4/9 1/5/10 5/7/11 6/10/12
f 2/4/13 6/9/14 4/6/15
f 5/1/16 1/5/17 3/2/18
