# This file uses centimeters as units for non-parametric coordinates.

mtllib Floor_1.mtl
g default
v -5.429608 0.019444 2.370000
v 194.570374 0.019444 2.370000
v -5.429608 0.019444 -137.629979
v 194.570374 0.019444 -137.629979
v 83.980179 0.019444 2.370000
v 83.980179 0.019444 -137.629979
v 102.051186 0.019444 2.370000
v 102.051186 0.019444 -137.629979
v 60.325831 0.019444 2.370000
v 60.325831 0.019444 -137.629979
v 125.684380 0.019444 2.370000
v 125.684380 0.019444 -137.629979
v -5.429608 0.019444 -56.454773
v 194.570374 0.019444 -56.454773
v 125.684380 0.019444 -56.454773
v 102.051186 0.019444 -56.454773
v 83.980179 0.019444 -56.454773
v 60.325825 0.019444 -56.454773
v -5.429608 0.019444 -7.833442
v 194.570374 0.019444 -7.833442
v 125.684380 0.019444 -7.833442
v 102.051186 0.019444 -7.833442
v 83.980179 0.019444 -7.833442
v 60.325831 0.019444 -7.833442
v 102.051186 -4.480556 -56.454773
v 125.684380 -4.480556 -56.454773
v 125.684380 -4.480556 -7.833442
v 102.051186 -4.480556 -7.833442
v 60.325831 -4.480556 -56.454773
v 60.325831 -4.480556 -7.833442
v 83.980179 -4.480556 -7.833442
v 83.980179 -4.480556 -56.454773
v 194.570374 0.019444 -80.507543
v 125.684380 0.019444 -80.507543
v 102.051186 0.019444 -80.507543
v 83.980179 0.019444 -80.507543
v 60.325825 0.019444 -80.507543
v -5.429608 0.019444 -80.507543
vt 0.343820 0.236774
vt 0.000000 0.201017
vt 0.651081 0.426596
vt 0.342241 0.417308
vt 0.541837 0.426292
vt 1.000000 0.201017
vt 1.000000 0.150000
vt 1.000000 0.564388
vt 0.655570 0.564388
vt 0.553247 0.415410
vt 1.000000 0.444124
vt 0.537404 0.564388
vt 0.638519 0.416836
vt 0.447049 0.564388
vt 0.330362 0.428700
vt 0.328777 0.564388
vt 0.330638 0.226686
vt 0.555234 0.242482
vt 0.542632 0.232784
vt 0.640508 0.243886
vt 0.651896 0.232983
vt 0.432923 0.237995
vt 0.444780 0.226581
vt 0.431341 0.418552
vt 0.444483 0.428705
vt 0.328777 0.850000
vt 0.447049 0.850000
vt 0.537404 0.850000
vt 0.655570 0.850000
vt 1.000000 0.850000
vt 0.000000 0.564388
vt 0.000000 0.850000
vt 0.000000 0.444124
vt 0.655570 0.150000
vt 0.328777 0.150000
vt 0.447049 0.150000
vt 0.537404 0.150000
vt 0.000000 0.150000
vt 0.447049 0.201017
vt 0.328777 0.201017
vt 0.328777 0.444124
vt 0.447049 0.444124
vt 0.655570 0.201017
vt 0.537404 0.201017
vt 0.537404 0.444124
vt 0.655570 0.444124
vn 0.000000 1.000000 0.000000
vn 0.000000 1.000000 0.000000
vn 0.000000 1.000000 0.000000
vn 0.000000 1.000000 0.000000
vn 0.000000 1.000000 0.000000
vn 0.000000 1.000000 0.000000
vn 0.000000 1.000000 0.000000
vn 0.000000 1.000000 0.000000
vn 0.000000 1.000000 0.000000
vn 0.000000 1.000000 0.000000
vn 0.000000 1.000000 0.000000
vn 0.000000 1.000000 0.000000
vn 0.000000 1.000000 0.000000
vn 0.000000 1.000000 0.000000
vn 0.000000 1.000000 0.000000
vn 0.000000 1.000000 0.000000
vn 0.000000 1.000000 0.000000
vn 0.000000 1.000000 0.000000
vn 0.000000 1.000000 0.000000
vn 0.000000 1.000000 0.000000
vn 0.000000 1.000000 0.000000
vn 0.000000 1.000000 0.000000
vn 0.000000 1.000000 0.000000
vn 0.000000 1.000000 0.000000
vn 0.000000 0.000000 1.000000
vn 0.000000 0.000000 1.000000
vn 0.000000 0.000000 1.000000
vn 0.000000 0.000000 1.000000
vn 1.000000 0.000000 0.000000
vn 1.000000 0.000000 0.000000
vn 1.000000 0.000000 0.000000
vn 1.000000 0.000000 0.000000
vn -1.000000 0.000000 0.000000
vn -1.000000 0.000000 0.000000
vn -1.000000 0.000000 0.000000
vn -1.000000 0.000000 0.000000
vn 0.000000 0.000000 -1.000000
vn 0.000000 0.000000 -1.000000
vn 0.000000 0.000000 -1.000000
vn 0.000000 0.000000 -1.000000
vn 1.000000 0.000000 -0.000000
vn 1.000000 0.000000 -0.000000
vn 1.000000 0.000000 -0.000000
vn 1.000000 0.000000 -0.000000
vn 0.000000 0.000000 -1.000000
vn 0.000000 0.000000 -1.000000
vn 0.000000 0.000000 -1.000000
vn 0.000000 0.000000 -1.000000
vn -1.000000 0.000000 0.000000
vn -1.000000 0.000000 0.000000
vn -1.000000 0.000000 0.000000
vn -1.000000 0.000000 0.000000
vn 0.000000 0.000000 1.000000
vn 0.000000 0.000000 1.000000
vn 0.000000 0.000000 1.000000
vn 0.000000 0.000000 1.000000
vn 0.000000 1.000000 0.000000
vn 0.000000 1.000000 0.000000
vn 0.000000 1.000000 0.000000
vn 0.000000 1.000000 0.000000
vn 0.000000 1.000000 0.000000
vn 0.000000 1.000000 0.000000
vn 0.000000 1.000000 0.000000
vn 0.000000 1.000000 0.000000
vn 0.000000 1.000000 0.000000
vn 0.000000 1.000000 0.000000
vn 0.000000 1.000000 0.000000
vn 0.000000 1.000000 0.000000
vn 0.000000 1.000000 0.000000
vn 0.000000 1.000000 0.000000
s 1
g floor
usemtl initialShadingGroup
f 1/38/1 9/35/2 24/40/3 19/2/4
f 22/44/5 23/39/6 5/36/7 7/37/8
f 21/43/9 22/44/5 7/37/8 11/34/10
f 23/39/6 24/40/3 9/35/2 5/36/7
f 20/6/11 21/43/9 11/34/10 2/7/12
f 33/8/13 34/9/14 15/46/15 14/11/16
f 34/9/14 35/12/17 16/45/18 15/46/15
f 35/12/17 36/14/19 17/42/20 16/45/18
f 36/14/19 37/16/21 18/41/22 17/42/20
f 13/33/23 18/41/22 37/16/21 38/31/24
f 14/11/16 15/46/15 21/43/9 20/6/11
f 16/45/18 17/42/20 23/39/6 22/44/5
f 19/2/4 24/40/3 18/41/22 13/33/23
s off
f 15/3/25 16/5/26 25/10/27 26/13/28
f 28/18/29 25/10/30 16/5/31 22/19/32
f 26/13/33 27/20/34 21/21/35 15/3/36
f 27/20/37 28/18/38 22/19/39 21/21/40
f 30/1/41 29/4/42 18/15/43 24/17/44
f 31/22/45 30/1/46 24/17/47 23/23/48
f 32/24/49 31/22/50 23/23/51 17/25/52
f 29/4/53 32/24/54 17/25/55 18/15/56
f 25/10/57 28/18/58 27/20/59 26/13/60
f 31/22/61 32/24/62 29/4/63 30/1/64
s 1
f 12/29/65 34/9/14 33/8/13 4/30/66
f 8/28/67 35/12/17 34/9/14 12/29/65
f 8/28/67 6/27/68 36/14/19 35/12/17
f 10/26/69 37/16/21 36/14/19 6/27/68
f 38/31/24 37/16/21 10/26/69 3/32/70
