# This file uses centimeters as units for non-parametric coordinates.

mtllib Wall_8_Door_Open.mtl
g default
v -12.000000 0.016184 0.250000
v 12.000000 0.016184 0.250000
v -12.000000 12.016186 0.250000
v 12.000000 12.016186 0.250000
v -12.000000 12.016186 -0.250000
v 12.000000 12.016186 -0.250000
v -12.000000 0.016184 -0.250000
v 12.000000 0.016184 -0.250000
v -3.000000 0.016184 0.250000
v -3.000000 12.016186 0.250000
v -3.000000 12.016186 -0.250000
v -3.000000 0.016184 -0.250000
v -9.000000 0.016184 0.250000
v -9.000000 12.016186 0.250000
v -9.000000 12.016186 -0.250000
v -9.000000 0.016184 -0.250000
v -12.000000 6.020960 0.250000
v -12.000000 6.020960 -0.250000
v -9.000000 6.020960 -0.250000
v -3.000000 6.020960 -0.250000
v 12.000000 6.020960 -0.250000
v 12.000000 6.020960 0.250000
v -3.000000 6.020960 0.250000
v -9.000000 6.020960 0.250000
v -4.200000 6.020960 0.250000
v -4.200000 12.016186 0.250000
v -4.200000 12.016186 -0.250000
v -4.200000 6.020960 -0.250000
v -3.000000 6.020960 0.170459
v -4.200000 6.020960 0.170459
v -4.200000 0.016184 0.170459
v -3.000000 0.016184 0.170459
v -4.200000 0.016184 -0.150441
v -3.000000 0.016184 -0.150441
v -4.200003 6.020960 -0.150000
v -3.000000 6.020960 -0.150441
v 11.999996 0.016184 -0.150000
v 11.999996 6.020960 -0.150000
v 11.999996 12.016186 -0.150000
v -3.000000 12.016186 -0.150000
v -4.200000 12.016186 -0.150000
v -9.000000 12.016186 -0.150000
v -12.000000 12.016186 -0.150000
v -12.000000 6.020960 -0.150000
v -12.000000 0.016184 -0.150000
v -9.000000 0.016184 -0.150000
v -9.000000 6.020960 -0.150000
v 12.000000 0.016184 0.170000
v 12.000000 6.020960 0.170000
v 12.000000 12.016186 0.170000
v -3.000000 12.016186 0.170000
v -4.199998 12.016186 0.170000
v -9.000000 12.016186 0.170000
v -12.000000 12.016186 0.170000
v -12.000000 6.020960 0.170000
v -12.000000 0.016184 0.170000
v -9.000000 0.016184 0.170000
v -9.000000 6.020960 0.170000
v -3.000000 0.016184 0.010009
v -4.200000 0.016184 0.010009
v -4.200002 6.020960 0.010229
v -9.000000 6.020960 0.010000
v -9.000000 0.016184 0.010000
v -12.000000 0.016184 0.010000
v -12.000000 6.020960 0.010000
v -12.000000 12.016186 0.010000
v -9.000000 12.016186 0.010000
v -4.199999 12.016186 0.010000
v -3.000000 12.016186 0.010000
v 11.999999 12.016186 0.010000
v 11.999999 6.020960 0.010000
v 11.999999 0.016184 0.010000
vt 0.787551 0.048311
vt 0.769080 0.249087
vt 0.580285 0.048311
vt 0.338702 0.688758
vt 0.154569 0.698356
vt 0.947893 0.504812
vt 0.580285 0.259242
vt 0.784038 0.259242
vt 0.784038 0.048311
vt 0.157380 0.487403
vt 0.157380 0.698356
vt 0.154569 0.487403
vt 0.170074 0.685948
vt 0.338702 0.685964
vt 0.948499 0.719277
vt 0.906342 0.719381
vt 0.576787 0.048311
vt 0.769078 0.245496
vt 0.948490 0.715764
vt 0.910926 0.265405
vt 0.911012 0.476359
vt 0.596747 0.245590
vt 0.892318 0.487403
vt 0.895129 0.487403
vt 0.895129 0.698356
vt 0.892318 0.698356
vt 0.895129 0.908974
vt 0.892318 0.908974
vt 0.046366 0.259243
vt 0.046366 0.048311
vt 0.049878 0.048311
vt 0.049878 0.259243
vt 0.046366 0.469839
vt 0.049879 0.469839
vt 0.046366 0.698356
vt 0.046366 0.487403
vt 0.049177 0.487403
vt 0.049177 0.698356
vt 0.046366 0.908974
vt 0.049177 0.908974
vt 0.892933 0.259242
vt 0.896446 0.259242
vt 0.896446 0.469838
vt 0.892933 0.469838
vt 0.892933 0.048311
vt 0.896446 0.048311
vt 0.365355 0.487403
vt 0.365355 0.698356
vt 0.953169 0.476342
vt 0.953083 0.265388
vt 0.910924 0.259769
vt 0.154569 0.908974
vt 0.154569 0.911784
vt 0.049177 0.911784
vt 0.365355 0.911784
vt 0.365355 0.908974
vt 0.892318 0.911784
vt 0.323198 0.908974
vt 0.323198 0.911784
vt 0.576788 0.469838
vt 0.576788 0.473351
vt 0.049879 0.473351
vt 0.618940 0.469838
vt 0.618940 0.473351
vt 0.787551 0.473351
vt 0.787551 0.469838
vt 0.892933 0.473351
vt 0.049177 0.484592
vt 0.154569 0.484592
vt 0.787551 0.044798
vt 0.892933 0.044798
vt 0.365355 0.484609
vt 0.892318 0.484592
vt 0.576787 0.044814
vt 0.049878 0.044799
vt 0.953170 0.479136
vt 0.911013 0.479153
vt 0.163001 0.487403
vt 0.163001 0.698356
vt 0.953530 0.504796
vt 0.576787 0.259242
vt 0.618940 0.259242
vt 0.596743 0.239838
vt 0.954119 0.715749
vt 0.778418 0.048311
vt 0.769075 0.239752
vt 0.787551 0.039178
vt 0.576787 0.039178
vt 0.778418 0.259242
vt 0.905289 0.265408
vt 0.338702 0.680334
vt 0.905383 0.476361
vt 0.902066 0.048311
vt 0.170074 0.680327
vt 0.154569 0.478971
vt 0.892933 0.039178
vt 0.040745 0.487403
vt 0.049177 0.478971
vt 0.040745 0.698356
vt 0.040745 0.908974
vt 0.049177 0.917405
vt 0.154569 0.917405
vt 0.323198 0.917405
vt 0.365355 0.917405
vt 0.892318 0.917405
vt 0.900750 0.908974
vt 0.900750 0.698356
vt 0.892318 0.478971
vt 0.900750 0.487403
vt 0.040745 0.048311
vt 0.049878 0.039178
vt 0.902066 0.259242
vt 0.365355 0.478972
vt 0.040745 0.259243
vt 0.049879 0.478972
vt 0.040745 0.469839
vt 0.576788 0.478971
vt 0.618940 0.478971
vt 0.787551 0.478971
vt 0.902066 0.469838
vt 0.892933 0.478971
vt 0.953081 0.259752
vt 0.905720 0.499294
vt 0.947877 0.499175
vt 0.787551 0.259242
vt 0.596748 0.249181
vt 0.323198 0.698356
vt 0.170074 0.688758
vt 0.906333 0.715883
vt 0.905736 0.504931
vt 0.362560 0.487403
vt 0.362560 0.698356
vn 0.000000 0.000000 1.000000
vn 0.026655 -0.013317 0.999556
vn 0.007416 -0.005911 0.999955
vn 0.000000 0.000000 1.000000
vn 0.000000 1.000000 0.000000
vn 0.000000 1.000000 0.000000
vn 0.000000 1.000000 0.000000
vn 0.000000 1.000000 0.000000
vn 0.000000 0.000000 -1.000000
vn 0.009269 -0.007410 -0.999930
vn 0.033310 -0.016642 -0.999306
vn 0.000000 0.000000 -1.000000
vn 0.000000 -1.000000 0.000000
vn 0.894569 -0.446929 0.000000
vn 0.000000 -1.000000 0.000000
vn 1.000000 0.000000 0.000000
vn 1.000000 0.000000 -0.000006
vn 1.000000 0.000000 -0.000006
vn 1.000000 0.000000 0.000000
vn -1.000000 0.000000 0.000000
vn -1.000000 0.000000 0.000000
vn -1.000000 0.000000 0.000000
vn -1.000000 0.000000 0.000000
vn -0.000000 0.000000 1.000000
vn -0.000000 0.000000 1.000000
vn -0.000000 0.000000 1.000000
vn -0.000000 0.000000 1.000000
vn 0.000000 1.000000 0.000000
vn 0.000000 1.000000 0.000000
vn 0.000000 1.000000 0.000000
vn 0.000000 1.000000 0.000000
vn 0.000000 0.000000 -1.000000
vn 0.000000 0.000000 -1.000000
vn 0.000000 0.000000 -1.000000
vn 0.000000 0.000000 -1.000000
vn 0.000000 -1.000000 0.000000
vn 0.000000 -1.000000 0.000000
vn 0.000000 -1.000000 0.000000
vn 0.000000 -1.000000 0.000000
vn 0.000000 1.000000 0.000000
vn 0.000000 1.000000 0.000000
vn -1.000000 0.000000 0.000000
vn -1.000000 0.000000 0.000000
vn 0.000000 0.000000 -1.000000
vn 0.000000 0.000000 -1.000000
vn 0.000000 0.000000 -1.000000
vn 0.000000 -0.013343 -0.999911
vn 0.000000 0.000000 -1.000000
vn 0.000000 0.000000 -1.000000
vn 1.000000 0.000000 -0.000006
vn 1.000000 0.000000 0.000000
vn 0.000000 0.000000 1.000000
vn -0.000000 0.000000 1.000000
vn 0.000000 -0.010644 0.999943
vn 0.000000 0.000000 1.000000
vn 0.000000 0.000000 1.000000
vn 0.000000 0.000000 1.000000
vn 0.000000 0.000000 1.000000
vn 0.000000 0.000000 1.000000
vn 0.000000 0.000000 1.000000
vn 0.000000 0.000000 1.000000
vn -0.000184 0.000037 -1.000000
vn -0.000184 0.000037 -1.000000
vn -0.000184 0.000037 -1.000000
vn -0.000184 0.000037 -1.000000
vn 1.000000 0.000000 0.000000
vn 0.000000 -1.000000 0.000000
vn 0.000000 -1.000000 0.000000
vn 0.000000 -1.000000 0.000000
vn 0.000000 -1.000000 0.000000
vn 0.000000 -1.000000 0.000000
vn 0.000000 -1.000000 0.000000
vn -1.000000 0.000000 0.000000
vn -1.000000 0.000000 0.000000
vn -1.000000 0.000000 0.000000
vn -1.000000 0.000000 0.000000
vn 0.000000 -1.000000 -0.000000
vn 0.000000 -1.000000 -0.000000
vn 0.000000 -1.000000 -0.000000
vn 0.000000 -1.000000 -0.000000
vn -1.000000 0.000000 0.000000
vn -1.000000 0.000000 0.000000
vn -1.000000 0.000000 0.000000
vn -1.000000 0.000000 0.000000
vn 0.000000 -1.000000 -0.000001
vn 0.000000 -1.000000 -0.000006
vn 0.000000 -1.000000 -0.000006
vn 0.000000 -1.000000 -0.000001
vn 1.000000 0.000000 0.000006
vn 1.000000 0.000000 0.000006
vn 1.000000 0.000000 0.000036
vn 1.000000 0.000000 0.000036
vn 1.000000 0.000000 0.000006
vn 1.000000 0.000000 0.000036
vn 0.000000 1.000000 0.000000
vn 0.000000 1.000000 0.000000
vn 0.000000 1.000000 0.000000
vn 0.000000 1.000000 0.000000
vn 0.000000 1.000000 0.000000
vn 0.000000 1.000000 0.000000
vn 0.000000 1.000000 0.000000
vn 0.000000 1.000000 0.000000
vn 0.000000 1.000000 0.000000
vn 0.000000 1.000000 0.000000
vn -1.000000 0.000000 0.000000
vn -1.000000 0.000000 0.000000
vn -1.000000 0.000000 0.000000
vn -1.000000 0.000000 0.000000
vn -1.000000 0.000000 0.000000
vn -1.000000 0.000000 0.000000
vn 0.000000 -1.000000 0.000000
vn 0.894569 -0.446929 0.000000
vn 0.000000 -1.000000 0.000000
vn 1.000000 0.000000 0.000000
vn 0.000000 -1.000000 -0.000000
vn 0.000000 -1.000000 -0.000000
vn 0.000000 -1.000000 0.000001
vn 0.000000 -1.000000 0.000001
vn 1.000000 0.000000 -0.000011
vn 1.000000 0.000000 -0.000011
vn 1.000000 0.000000 -0.000011
vn 0.000000 1.000000 0.000000
vn 0.000000 1.000000 0.000000
vn 0.000000 1.000000 0.000000
vn 0.000000 1.000000 0.000000
vn 0.000000 1.000000 0.000000
vn -1.000000 0.000000 0.000000
vn -1.000000 0.000000 0.000000
vn -1.000000 0.000000 0.000000
vn 0.894569 -0.446929 0.000000
vn 0.000000 -1.000000 0.000000
vn 1.000000 0.000000 0.000000
vn 0.000000 -1.000000 0.000000
vn 0.000000 -1.000000 0.000000
vn 0.000000 -1.000000 0.000000
vn 0.000000 -1.000000 0.000000
vn -1.000000 -0.000000 0.000003
vn -1.000000 -0.000000 0.000003
vn -1.000000 -0.000000 0.000004
vn -1.000000 -0.000000 0.000004
vn 0.000000 -1.000000 0.000000
vn 0.000000 -1.000000 0.000000
vn 0.000000 -1.000000 0.000000
vn 0.000000 -1.000000 0.000000
vn 0.000000 -1.000000 0.000000
vn 0.000000 -1.000000 0.000000
vn -1.000000 -0.000000 0.000004
vn -1.000000 -0.000000 0.000004
vn 0.000000 -1.000000 -0.000000
vn 0.000000 -1.000000 -0.000000
s 1
g Wall_8_Door_Open All_Wall
usemtl initialShadingGroup
f 1/37/1 13/12/2 24/5/3 17/38/4
s 2
f 3/40/5 14/52/6 53/53/7 54/54/8
s 1
f 18/41/9 19/125/10 16/1/11 7/45/12
f 56/68/13 57/69/14 13/12/2 1/37/15
s 5
f 2/23/16 48/24/17 49/25/18 22/26/19
s 6
f 55/35/20 56/36/21 1/37/22 17/38/23
s 1
f 23/48/24 9/47/25 2/23/26 22/26/27
s 2
f 51/55/28 10/56/29 4/28/30 50/57/31
s 1
f 12/17/32 20/81/33 21/32/34 8/31/35
s 10
f 2/23/36 9/47/37 32/72/38 48/73/39
s 2
f 26/58/40 52/59/41 53/53/7 14/52/6
s 6
f 54/39/42 55/35/20 17/38/23 3/40/43
s 1
f 5/44/44 15/66/45 19/125/10 18/41/9
f 19/125/10 15/66/45 27/63/46 28/82/47
f 20/81/33 11/60/48 6/34/49 21/32/34
s 5
f 22/26/19 49/25/18 50/27/50 4/28/51
s 1
f 10/56/52 23/48/24 22/26/27 4/28/53
f 25/127/54 26/58/55 14/52/56 24/5/3
f 17/38/4 24/5/3 14/52/56 3/40/57
s off
f 29/49/58 30/21/59 31/20/60 32/50/61
s 1
f 10/56/52 26/58/55 25/127/54 23/48/24
s 2
f 51/55/28 52/59/41 26/58/40 10/56/29
s 1
f 28/82/47 27/63/46 11/60/48 20/81/33
s off
f 34/130/62 33/6/63 35/19/64 36/129/65
s 1
f 57/10/14 58/11/66 24/5/3 13/12/2
f 25/4/54 24/128/3 58/13/67 30/14/68
s off
f 23/76/69 25/77/70 30/21/71 29/49/72
f 9/47/73 23/48/74 29/132/75 32/131/76
f 28/15/77 20/16/78 36/129/79 35/19/80
f 20/81/81 12/17/82 34/3/83 36/7/84
s 10
f 34/74/85 12/17/86 8/31/87 37/75/88
s 5
f 38/29/89 37/30/90 8/31/91 21/32/92
f 39/33/93 38/29/89 21/32/92 6/34/94
s 2
f 11/60/95 40/61/96 39/62/97 6/34/98
f 11/60/95 27/63/99 41/64/100 40/61/96
f 42/65/101 41/64/100 27/63/99 15/66/102
f 43/67/103 42/65/101 15/66/102 5/44/104
s 6
f 18/41/105 44/42/106 43/43/107 5/44/108
f 7/45/109 45/46/110 44/42/106 18/41/105
s 1
f 7/45/111 16/1/11 46/70/112 45/71/113
f 16/1/11 19/125/10 47/8/114 46/9/112
f 35/22/115 47/18/116 19/2/10 28/126/47
s 10
f 72/111/117 59/88/118 34/74/85 37/75/88
s 5
f 71/114/119 72/110/120 37/30/90 38/29/89
f 70/116/121 71/114/119 38/29/89 39/33/93
s 2
f 40/61/96 69/117/122 70/115/123 39/62/97
f 40/61/96 41/64/100 68/118/124 69/117/122
f 67/119/125 68/118/124 41/64/100 42/65/101
f 66/121/126 67/119/125 42/65/101 43/67/103
s 6
f 43/43/107 44/42/106 65/112/127 66/120/128
f 44/42/106 45/46/110 64/93/129 65/112/127
s 1
f 45/71/113 46/70/112 63/87/130 64/96/131
f 46/9/112 47/8/114 62/89/132 63/85/130
s 15
f 33/6/133 34/130/134 59/123/135 60/124/136
s 16
f 35/19/137 33/6/138 60/80/139 61/84/140
s 17
f 61/83/141 62/86/142 47/18/143 35/22/144
s 15
f 60/51/136 59/122/135 32/50/145 31/20/146
s 16
f 61/92/140 60/90/139 31/20/147 30/21/148
s 17
f 30/14/149 58/13/150 62/94/142 61/91/141
s 1
f 63/78/130 62/79/132 58/11/66 57/10/14
f 64/98/131 63/95/130 57/69/14 56/68/13
s 6
f 65/99/127 64/97/129 56/36/21 55/35/20
f 66/100/128 65/99/127 55/35/20 54/39/42
s 2
f 54/54/8 53/53/7 67/102/125 66/101/126
f 53/53/7 52/59/41 68/103/124 67/102/125
f 69/104/122 68/103/124 52/59/41 51/55/28
f 70/105/123 69/104/122 51/55/28 50/57/31
s 5
f 50/27/50 49/25/18 71/107/119 70/106/121
f 49/25/18 48/24/17 72/109/120 71/107/119
s 10
f 32/72/38 59/113/118 72/108/117 48/73/39
