# This file uses centimeters as units for non-parametric coordinates.

mtllib Wall_16.mtl
g default
v -24.246397 0.016184 0.344094
v 24.236766 0.016184 0.156148
v -24.246397 12.016186 0.344094
v 24.236766 12.016186 0.156148
v -24.236766 12.016186 -0.156148
v 24.246397 12.016186 -0.344094
v -24.236766 0.016184 -0.156148
v 24.246397 0.016184 -0.344094
vt 0.036413 0.034807
vt 0.044437 0.227429
vt 0.044445 0.034807
vt 0.044644 0.235458
vt 0.947532 0.235495
vt 0.955563 0.034844
vt 0.044653 0.026778
vt 0.963595 0.034844
vt 0.955771 0.026815
vt 0.036405 0.428080
vt 0.955556 0.227466
vt 0.036405 0.227429
vt 0.947524 0.428117
vt 0.955763 0.235495
vt 0.963587 0.227466
vt 0.036413 0.235458
vn 0.003876 0.000000 0.999993
vn 0.003876 0.000000 0.999993
vn 0.003876 0.000000 0.999993
vn 0.003876 0.000000 0.999993
vn 0.000000 1.000000 0.000000
vn 0.000000 1.000000 0.000000
vn 0.000000 1.000000 0.000000
vn 0.000000 1.000000 0.000000
vn -0.003876 0.000000 -0.999993
vn -0.003876 0.000000 -0.999993
vn -0.003876 0.000000 -0.999993
vn -0.003876 0.000000 -0.999993
vn 0.000000 -1.000000 0.000001
vn 0.000000 -1.000000 0.000001
vn 0.000000 -1.000000 0.000001
vn 0.000000 -1.000000 0.000001
vn 0.999815 0.000000 0.019249
vn 0.999815 0.000000 0.019249
vn 0.999815 0.000000 0.019249
vn 0.999815 0.000000 0.019249
vn -0.999815 0.000000 -0.019249
vn -0.999815 0.000000 -0.019249
vn -0.999815 0.000000 -0.019249
vn -0.999815 0.000000 -0.019249
s off
g Wall_16 All_Wall
usemtl initialShadingGroup
f 3/2/1 1/3/2 2/6/3 4/11/4
f 5/4/5 3/2/6 4/11/7 6/14/8
f 7/5/9 5/13/10 6/10/11 8/16/12
f 2/6/13 1/3/14 7/7/15 8/9/16
f 2/6/17 8/8/18 6/15/19 4/11/20
f 7/1/21 1/3/22 3/2/23 5/12/24
